<?xml version="1.0" encoding="utf-8" standalone="no"?>
<!DOCTYPE svg PUBLIC "-//W3C//DTD SVG 1.1//EN"
  "http://www.w3.org/Graphics/SVG/1.1/DTD/svg11.dtd">
<!-- Created with matplotlib (http://matplotlib.org/) -->
<svg height="216pt" version="1.1" viewBox="0 0 345.6 216" width="345.6pt" xmlns="http://www.w3.org/2000/svg" xmlns:xlink="http://www.w3.org/1999/xlink">
 <defs>
  <style type="text/css">
*{stroke-linecap:butt;stroke-linejoin:round;}
  </style>
 </defs>
 <g id="figure_1">
  <g id="patch_1">
   <path d="M 0 216 
L 345.6 216 
L 345.6 0 
L 0 0 
z
" style="fill:#ffffff;"/>
  </g>
  <g id="axes_1">
   <g id="patch_2">
    <path d="M 55.296 181.44 
L 314.496 181.44 
L 314.496 8.64 
L 55.296 8.64 
z
" style="fill:#ffffff;"/>
   </g>
   <g id="matplotlib.axis_1">
    <g id="xtick_1">
     <g id="line2d_1">
      <defs>
       <path d="M 0 0 
L 0 3.5 
" id="m5b40913de5" style="stroke:#000000;stroke-width:0.8;"/>
      </defs>
      <g>
       <use style="stroke:#000000;stroke-width:0.8;" x="67.077818" xlink:href="#m5b40913de5" y="181.44"/>
      </g>
     </g>
     <g id="text_1">
      <!-- 0 -->
      <defs>
       <path d="M 31.78125 66.40625 
Q 24.171875 66.40625 20.328125 58.90625 
Q 16.5 51.421875 16.5 36.375 
Q 16.5 21.390625 20.328125 13.890625 
Q 24.171875 6.390625 31.78125 6.390625 
Q 39.453125 6.390625 43.28125 13.890625 
Q 47.125 21.390625 47.125 36.375 
Q 47.125 51.421875 43.28125 58.90625 
Q 39.453125 66.40625 31.78125 66.40625 
z
M 31.78125 74.21875 
Q 44.046875 74.21875 50.515625 64.515625 
Q 56.984375 54.828125 56.984375 36.375 
Q 56.984375 17.96875 50.515625 8.265625 
Q 44.046875 -1.421875 31.78125 -1.421875 
Q 19.53125 -1.421875 13.0625 8.265625 
Q 6.59375 17.96875 6.59375 36.375 
Q 6.59375 54.828125 13.0625 64.515625 
Q 19.53125 74.21875 31.78125 74.21875 
z
" id="DejaVuSans-30"/>
      </defs>
      <g transform="translate(63.896568 196.038437)scale(0.1 -0.1)">
       <use xlink:href="#DejaVuSans-30"/>
      </g>
     </g>
    </g>
    <g id="xtick_2">
     <g id="line2d_2">
      <g>
       <use style="stroke:#000000;stroke-width:0.8;" x="126.016378" xlink:href="#m5b40913de5" y="181.44"/>
      </g>
     </g>
     <g id="text_2">
      <!-- 500 -->
      <defs>
       <path d="M 10.796875 72.90625 
L 49.515625 72.90625 
L 49.515625 64.59375 
L 19.828125 64.59375 
L 19.828125 46.734375 
Q 21.96875 47.46875 24.109375 47.828125 
Q 26.265625 48.1875 28.421875 48.1875 
Q 40.625 48.1875 47.75 41.5 
Q 54.890625 34.8125 54.890625 23.390625 
Q 54.890625 11.625 47.5625 5.09375 
Q 40.234375 -1.421875 26.90625 -1.421875 
Q 22.3125 -1.421875 17.546875 -0.640625 
Q 12.796875 0.140625 7.71875 1.703125 
L 7.71875 11.625 
Q 12.109375 9.234375 16.796875 8.0625 
Q 21.484375 6.890625 26.703125 6.890625 
Q 35.15625 6.890625 40.078125 11.328125 
Q 45.015625 15.765625 45.015625 23.390625 
Q 45.015625 31 40.078125 35.4375 
Q 35.15625 39.890625 26.703125 39.890625 
Q 22.75 39.890625 18.8125 39.015625 
Q 14.890625 38.140625 10.796875 36.28125 
z
" id="DejaVuSans-35"/>
      </defs>
      <g transform="translate(116.472628 196.038437)scale(0.1 -0.1)">
       <use xlink:href="#DejaVuSans-35"/>
       <use x="63.623047" xlink:href="#DejaVuSans-30"/>
       <use x="127.246094" xlink:href="#DejaVuSans-30"/>
      </g>
     </g>
    </g>
    <g id="xtick_3">
     <g id="line2d_3">
      <g>
       <use style="stroke:#000000;stroke-width:0.8;" x="184.954939" xlink:href="#m5b40913de5" y="181.44"/>
      </g>
     </g>
     <g id="text_3">
      <!-- 1000 -->
      <defs>
       <path d="M 12.40625 8.296875 
L 28.515625 8.296875 
L 28.515625 63.921875 
L 10.984375 60.40625 
L 10.984375 69.390625 
L 28.421875 72.90625 
L 38.28125 72.90625 
L 38.28125 8.296875 
L 54.390625 8.296875 
L 54.390625 0 
L 12.40625 0 
z
" id="DejaVuSans-31"/>
      </defs>
      <g transform="translate(172.229939 196.038437)scale(0.1 -0.1)">
       <use xlink:href="#DejaVuSans-31"/>
       <use x="63.623047" xlink:href="#DejaVuSans-30"/>
       <use x="127.246094" xlink:href="#DejaVuSans-30"/>
       <use x="190.869141" xlink:href="#DejaVuSans-30"/>
      </g>
     </g>
    </g>
    <g id="xtick_4">
     <g id="line2d_4">
      <g>
       <use style="stroke:#000000;stroke-width:0.8;" x="243.893499" xlink:href="#m5b40913de5" y="181.44"/>
      </g>
     </g>
     <g id="text_4">
      <!-- 1500 -->
      <g transform="translate(231.168499 196.038437)scale(0.1 -0.1)">
       <use xlink:href="#DejaVuSans-31"/>
       <use x="63.623047" xlink:href="#DejaVuSans-35"/>
       <use x="127.246094" xlink:href="#DejaVuSans-30"/>
       <use x="190.869141" xlink:href="#DejaVuSans-30"/>
      </g>
     </g>
    </g>
    <g id="xtick_5">
     <g id="line2d_5">
      <g>
       <use style="stroke:#000000;stroke-width:0.8;" x="302.832059" xlink:href="#m5b40913de5" y="181.44"/>
      </g>
     </g>
     <g id="text_5">
      <!-- 2000 -->
      <defs>
       <path d="M 19.1875 8.296875 
L 53.609375 8.296875 
L 53.609375 0 
L 7.328125 0 
L 7.328125 8.296875 
Q 12.9375 14.109375 22.625 23.890625 
Q 32.328125 33.6875 34.8125 36.53125 
Q 39.546875 41.84375 41.421875 45.53125 
Q 43.3125 49.21875 43.3125 52.78125 
Q 43.3125 58.59375 39.234375 62.25 
Q 35.15625 65.921875 28.609375 65.921875 
Q 23.96875 65.921875 18.8125 64.3125 
Q 13.671875 62.703125 7.8125 59.421875 
L 7.8125 69.390625 
Q 13.765625 71.78125 18.9375 73 
Q 24.125 74.21875 28.421875 74.21875 
Q 39.75 74.21875 46.484375 68.546875 
Q 53.21875 62.890625 53.21875 53.421875 
Q 53.21875 48.921875 51.53125 44.890625 
Q 49.859375 40.875 45.40625 35.40625 
Q 44.1875 33.984375 37.640625 27.21875 
Q 31.109375 20.453125 19.1875 8.296875 
z
" id="DejaVuSans-32"/>
      </defs>
      <g transform="translate(290.107059 196.038437)scale(0.1 -0.1)">
       <use xlink:href="#DejaVuSans-32"/>
       <use x="63.623047" xlink:href="#DejaVuSans-30"/>
       <use x="127.246094" xlink:href="#DejaVuSans-30"/>
       <use x="190.869141" xlink:href="#DejaVuSans-30"/>
      </g>
     </g>
    </g>
    <g id="text_6">
     <!-- 采样点 -->
     <defs>
      <path d="M 82.03125 82.03125 
L 87.890625 74.609375 
Q 81.25 74.21875 59.375 72.0625 
Q 37.5 69.921875 11.328125 69.921875 
L 11.328125 71.484375 
Q 30.859375 72.65625 43.359375 74.015625 
Q 55.859375 75.390625 66.40625 77.34375 
Q 76.953125 79.296875 82.03125 82.03125 
z
M 16.796875 64.453125 
Q 28.515625 57.03125 29.875 52.921875 
Q 31.25 48.828125 28.515625 45.703125 
Q 25.78125 42.578125 24.015625 48.828125 
Q 22.265625 55.078125 16.015625 63.671875 
z
M 40.625 66.796875 
L 41.796875 67.578125 
Q 52.734375 61.328125 54.09375 57.8125 
Q 55.46875 54.296875 52.734375 50.578125 
Q 50 46.875 48.234375 53.3125 
Q 46.484375 59.765625 40.625 66.796875 
z
M 75.390625 69.921875 
L 83.59375 64.453125 
L 80.078125 62.109375 
Q 69.53125 47.265625 62.109375 40.625 
L 60.9375 41.796875 
Q 71.09375 55.859375 75.390625 69.921875 
z
M 52.34375 34.375 
Q 52.34375 0.78125 52.734375 -7.8125 
L 46.09375 -10.546875 
Q 46.484375 13.671875 46.484375 30.859375 
Q 32.8125 6.640625 4.296875 -7.03125 
L 3.515625 -5.46875 
Q 28.515625 9.375 41.796875 34.375 
L 17.96875 34.375 
Q 12.890625 34.375 8.59375 33.203125 
L 5.078125 36.71875 
L 46.484375 36.71875 
Q 46.484375 41.796875 46.09375 48.046875 
L 55.078125 43.359375 
L 52.34375 40.234375 
L 52.34375 36.71875 
L 82.8125 36.71875 
L 88.28125 42.1875 
L 95.703125 34.375 
L 56.640625 34.375 
Q 70.703125 3.90625 95.3125 -0.390625 
L 95.3125 -1.953125 
Q 89.84375 -1.5625 86.71875 -6.640625 
Q 64.84375 5.078125 54.6875 34.375 
z
" id="SimSun-91c7"/>
      <path d="M 43.75 78.515625 
L 44.53125 79.6875 
Q 56.640625 73.046875 58.203125 69.71875 
Q 59.765625 66.40625 57.21875 62.6875 
Q 54.6875 58.984375 52.734375 64.453125 
Q 50.78125 69.921875 43.75 78.515625 
z
M 66.796875 20.703125 
Q 66.796875 1.171875 67.1875 -7.421875 
L 60.9375 -9.765625 
Q 61.328125 4.296875 61.328125 20.703125 
L 48.046875 20.703125 
Q 42.96875 20.703125 38.671875 19.53125 
L 35.15625 23.046875 
L 61.328125 23.046875 
L 61.328125 39.453125 
L 54.6875 39.453125 
Q 49.609375 39.453125 45.3125 38.28125 
L 41.796875 41.796875 
L 61.328125 41.796875 
L 61.328125 56.25 
L 54.296875 56.25 
Q 49.21875 56.25 44.921875 55.078125 
L 41.40625 58.59375 
L 66.796875 58.59375 
Q 73.828125 71.875 76.171875 82.03125 
L 84.375 76.5625 
Q 80.46875 74.609375 76.5625 69.140625 
Q 72.65625 63.671875 69.140625 58.59375 
L 80.46875 58.59375 
L 85.15625 63.28125 
L 92.1875 56.25 
L 66.796875 56.25 
L 66.796875 41.796875 
L 77.734375 41.796875 
L 82.421875 46.484375 
L 89.453125 39.453125 
L 66.796875 39.453125 
L 66.796875 23.046875 
L 82.421875 23.046875 
L 87.5 28.125 
L 94.921875 20.703125 
z
M 25.78125 11.71875 
Q 25.78125 6.25 26.171875 -7.8125 
L 19.921875 -10.15625 
Q 20.3125 12.890625 20.3125 37.109375 
Q 13.671875 21.484375 4.6875 11.328125 
L 3.515625 12.109375 
Q 14.453125 29.296875 20.3125 56.25 
L 17.578125 56.25 
Q 12.5 56.25 8.203125 55.078125 
L 4.6875 58.59375 
L 20.3125 58.59375 
Q 20.3125 68.359375 19.921875 82.03125 
L 28.90625 77.34375 
L 25.78125 74.609375 
L 25.78125 58.59375 
L 30.859375 58.59375 
L 35.15625 62.890625 
L 41.796875 56.25 
L 25.78125 56.25 
L 25.78125 45.703125 
Q 33.203125 42.1875 36.515625 39.453125 
Q 39.84375 36.71875 37.890625 31.640625 
Q 35.9375 26.5625 33.203125 32.421875 
Q 30.46875 38.28125 25.78125 43.359375 
z
" id="SimSun-6837"/>
      <path d="M 29.296875 45.3125 
L 29.296875 23.828125 
L 72.265625 23.828125 
L 72.265625 45.3125 
z
M 23.046875 14.453125 
Q 23.4375 22.65625 23.4375 32.03125 
Q 23.4375 41.40625 23.046875 50.78125 
L 29.296875 47.65625 
L 46.09375 47.65625 
Q 46.09375 73.828125 45.703125 81.640625 
L 54.6875 78.125 
L 51.5625 75 
L 51.5625 65.625 
L 76.953125 65.625 
L 82.03125 70.703125 
L 89.0625 63.28125 
L 51.5625 63.28125 
L 51.5625 47.65625 
L 71.484375 47.65625 
L 75.390625 51.5625 
L 81.25 45.703125 
L 77.734375 42.96875 
Q 77.734375 24.609375 78.125 17.96875 
L 72.265625 15.625 
L 72.265625 21.484375 
L 29.296875 21.484375 
L 29.296875 16.796875 
z
M 21.09375 12.5 
L 22.65625 12.5 
Q 20.3125 -2.734375 17.1875 -5.859375 
Q 14.0625 -8.984375 10.734375 -6.828125 
Q 7.421875 -4.6875 10.9375 -1.953125 
Q 14.453125 0.78125 16.203125 3.125 
Q 17.96875 5.46875 21.09375 12.5 
z
M 34.765625 10.546875 
L 35.546875 11.71875 
Q 43.75 5.46875 45.3125 1.5625 
Q 46.875 -2.34375 43.75 -5.46875 
Q 40.625 -8.59375 39.84375 -2.921875 
Q 39.0625 2.734375 34.765625 10.546875 
z
M 55.46875 10.9375 
L 56.25 12.109375 
Q 63.671875 6.640625 66.015625 2.53125 
Q 68.359375 -1.5625 65.234375 -5.078125 
Q 62.109375 -8.59375 60.9375 -1.953125 
Q 59.765625 4.6875 55.46875 10.9375 
z
M 76.5625 12.109375 
L 77.34375 13.28125 
Q 85.15625 7.8125 88.859375 2.921875 
Q 92.578125 -1.953125 89.453125 -5.859375 
Q 86.328125 -9.765625 84.5625 -3.125 
Q 82.8125 3.515625 76.5625 12.109375 
z
" id="SimSun-70b9"/>
     </defs>
     <g transform="translate(166.896 211.680625)scale(0.12 -0.12)">
      <use xlink:href="#SimSun-91c7"/>
      <use x="100" xlink:href="#SimSun-6837"/>
      <use x="200" xlink:href="#SimSun-70b9"/>
     </g>
    </g>
   </g>
   <g id="matplotlib.axis_2">
    <g id="ytick_1">
     <g id="line2d_6">
      <defs>
       <path d="M 0 0 
L -3.5 0 
" id="mbd52eb5e2d" style="stroke:#000000;stroke-width:0.8;"/>
      </defs>
      <g>
       <use style="stroke:#000000;stroke-width:0.8;" x="55.296" xlink:href="#mbd52eb5e2d" y="169.084134"/>
      </g>
     </g>
     <g id="text_7">
      <!-- −0.20 -->
      <defs>
       <path d="M 10.59375 35.5 
L 73.1875 35.5 
L 73.1875 27.203125 
L 10.59375 27.203125 
z
" id="DejaVuSans-2212"/>
       <path d="M 10.6875 12.40625 
L 21 12.40625 
L 21 0 
L 10.6875 0 
z
" id="DejaVuSans-2e"/>
      </defs>
      <g transform="translate(17.650687 172.883352)scale(0.1 -0.1)">
       <use xlink:href="#DejaVuSans-2212"/>
       <use x="83.789062" xlink:href="#DejaVuSans-30"/>
       <use x="147.412109" xlink:href="#DejaVuSans-2e"/>
       <use x="179.199219" xlink:href="#DejaVuSans-32"/>
       <use x="242.822266" xlink:href="#DejaVuSans-30"/>
      </g>
     </g>
    </g>
    <g id="ytick_2">
     <g id="line2d_7">
      <g>
       <use style="stroke:#000000;stroke-width:0.8;" x="55.296" xlink:href="#mbd52eb5e2d" y="139.574835"/>
      </g>
     </g>
     <g id="text_8">
      <!-- −0.15 -->
      <g transform="translate(17.650687 143.374053)scale(0.1 -0.1)">
       <use xlink:href="#DejaVuSans-2212"/>
       <use x="83.789062" xlink:href="#DejaVuSans-30"/>
       <use x="147.412109" xlink:href="#DejaVuSans-2e"/>
       <use x="179.199219" xlink:href="#DejaVuSans-31"/>
       <use x="242.822266" xlink:href="#DejaVuSans-35"/>
      </g>
     </g>
    </g>
    <g id="ytick_3">
     <g id="line2d_8">
      <g>
       <use style="stroke:#000000;stroke-width:0.8;" x="55.296" xlink:href="#mbd52eb5e2d" y="110.065536"/>
      </g>
     </g>
     <g id="text_9">
      <!-- −0.10 -->
      <g transform="translate(17.650687 113.864754)scale(0.1 -0.1)">
       <use xlink:href="#DejaVuSans-2212"/>
       <use x="83.789062" xlink:href="#DejaVuSans-30"/>
       <use x="147.412109" xlink:href="#DejaVuSans-2e"/>
       <use x="179.199219" xlink:href="#DejaVuSans-31"/>
       <use x="242.822266" xlink:href="#DejaVuSans-30"/>
      </g>
     </g>
    </g>
    <g id="ytick_4">
     <g id="line2d_9">
      <g>
       <use style="stroke:#000000;stroke-width:0.8;" x="55.296" xlink:href="#mbd52eb5e2d" y="80.556237"/>
      </g>
     </g>
     <g id="text_10">
      <!-- −0.05 -->
      <g transform="translate(17.650687 84.355455)scale(0.1 -0.1)">
       <use xlink:href="#DejaVuSans-2212"/>
       <use x="83.789062" xlink:href="#DejaVuSans-30"/>
       <use x="147.412109" xlink:href="#DejaVuSans-2e"/>
       <use x="179.199219" xlink:href="#DejaVuSans-30"/>
       <use x="242.822266" xlink:href="#DejaVuSans-35"/>
      </g>
     </g>
    </g>
    <g id="ytick_5">
     <g id="line2d_10">
      <g>
       <use style="stroke:#000000;stroke-width:0.8;" x="55.296" xlink:href="#mbd52eb5e2d" y="51.046938"/>
      </g>
     </g>
     <g id="text_11">
      <!-- 0.00 -->
      <g transform="translate(26.030375 54.846156)scale(0.1 -0.1)">
       <use xlink:href="#DejaVuSans-30"/>
       <use x="63.623047" xlink:href="#DejaVuSans-2e"/>
       <use x="95.410156" xlink:href="#DejaVuSans-30"/>
       <use x="159.033203" xlink:href="#DejaVuSans-30"/>
      </g>
     </g>
    </g>
    <g id="ytick_6">
     <g id="line2d_11">
      <g>
       <use style="stroke:#000000;stroke-width:0.8;" x="55.296" xlink:href="#mbd52eb5e2d" y="21.537639"/>
      </g>
     </g>
     <g id="text_12">
      <!-- 0.05 -->
      <g transform="translate(26.030375 25.336857)scale(0.1 -0.1)">
       <use xlink:href="#DejaVuSans-30"/>
       <use x="63.623047" xlink:href="#DejaVuSans-2e"/>
       <use x="95.410156" xlink:href="#DejaVuSans-30"/>
       <use x="159.033203" xlink:href="#DejaVuSans-35"/>
      </g>
     </g>
    </g>
    <g id="text_13">
     <!-- 能耗 -->
     <defs>
      <path d="M 27.734375 82.03125 
L 34.765625 76.171875 
Q 30.46875 75 24.21875 68.15625 
Q 17.96875 61.328125 14.0625 57.8125 
L 43.75 58.59375 
Q 40.234375 65.234375 37.109375 68.75 
L 37.890625 69.921875 
Q 44.53125 66.015625 48.046875 62.6875 
Q 51.5625 59.375 51.359375 56.4375 
Q 51.171875 53.515625 49.015625 51.5625 
Q 46.875 49.609375 46.28125 51.75 
Q 45.703125 53.90625 44.53125 57.03125 
Q 37.890625 56.25 26.5625 55.078125 
Q 15.234375 53.90625 11.71875 51.171875 
L 7.8125 58.59375 
Q 11.71875 58.59375 18.359375 66.796875 
Q 25 75 27.734375 82.03125 
z
M 12.890625 -9.375 
Q 13.28125 -1.171875 13.28125 20.703125 
Q 13.28125 42.578125 12.890625 48.4375 
L 18.75 45.3125 
L 38.671875 45.3125 
L 41.796875 49.21875 
L 47.65625 44.140625 
L 44.53125 41.40625 
L 44.53125 1.5625 
Q 45.3125 -5.859375 36.71875 -9.375 
Q 36.328125 -4.296875 26.5625 -1.5625 
L 26.5625 0 
Q 33.984375 -0.78125 36.71875 -0.78125 
Q 39.453125 -0.78125 39.453125 3.515625 
L 39.453125 17.1875 
L 18.75 17.1875 
L 18.75 -6.25 
z
M 18.75 42.96875 
L 18.75 33.203125 
L 39.453125 33.203125 
L 39.453125 42.96875 
z
M 18.75 30.859375 
L 18.75 19.53125 
L 39.453125 19.53125 
L 39.453125 30.859375 
z
M 57.8125 48.046875 
Q 57.8125 75.390625 57.421875 79.6875 
L 66.40625 75.78125 
L 62.890625 72.65625 
L 62.890625 58.984375 
Q 75 65.234375 80.859375 73.046875 
L 86.71875 66.40625 
L 83.203125 66.015625 
Q 71.875 60.15625 62.890625 57.03125 
L 62.890625 49.609375 
Q 62.890625 45.3125 68.75 45.3125 
L 82.03125 45.3125 
Q 85.9375 45.703125 86.328125 49.40625 
Q 86.71875 53.125 86.71875 59.375 
L 88.28125 59.375 
Q 88.671875 54.6875 89.453125 50.96875 
Q 90.234375 47.265625 93.75 46.09375 
Q 91.40625 41.015625 82.421875 41.015625 
L 66.015625 41.015625 
Q 57.8125 40.625 57.8125 48.046875 
z
M 56.640625 0.78125 
Q 56.640625 31.25 56.25 35.9375 
L 65.234375 31.640625 
L 61.71875 28.90625 
L 61.71875 16.40625 
Q 75.390625 23.828125 82.03125 33.203125 
L 88.28125 25.78125 
L 84.765625 25.78125 
Q 71.875 18.75 61.71875 14.0625 
L 61.71875 4.296875 
Q 61.71875 -1.953125 67.578125 -1.5625 
L 82.8125 -1.5625 
Q 87.109375 -1.171875 87.296875 3.703125 
Q 87.5 8.59375 87.890625 14.453125 
L 89.453125 14.453125 
Q 89.84375 7.8125 90.8125 4.09375 
Q 91.796875 0.390625 94.921875 -0.390625 
Q 92.96875 -5.859375 83.203125 -6.25 
L 65.234375 -6.25 
Q 57.03125 -6.25 56.640625 0.78125 
z
" id="SimSun-80fd"/>
      <path d="M 23.828125 65.234375 
Q 23.828125 69.53125 23.828125 73.625 
Q 23.828125 77.734375 23.4375 81.640625 
L 32.03125 77.734375 
L 29.296875 74.609375 
L 29.296875 65.234375 
L 36.71875 65.234375 
L 40.625 69.140625 
L 46.484375 62.890625 
L 29.296875 62.890625 
L 29.296875 51.953125 
L 34.375 51.953125 
L 37.890625 55.46875 
L 43.359375 49.609375 
L 29.296875 49.609375 
L 29.296875 39.453125 
L 37.890625 39.453125 
L 41.796875 43.359375 
L 47.65625 37.109375 
L 29.296875 37.109375 
L 29.296875 29.296875 
Q 36.71875 25.390625 39.453125 22.84375 
Q 42.1875 20.3125 42.375 17.375 
Q 42.578125 14.453125 40.625 12.6875 
Q 38.671875 10.9375 36.71875 16.203125 
Q 34.765625 21.484375 29.296875 27.34375 
Q 29.296875 3.515625 29.296875 -0.390625 
Q 29.296875 -4.296875 29.6875 -7.421875 
L 23.4375 -10.15625 
Q 23.828125 -0.78125 23.828125 23.4375 
Q 19.140625 15.625 15.421875 10.9375 
Q 11.71875 6.25 5.078125 0 
L 4.296875 1.171875 
Q 10.546875 9.375 15.625 18.359375 
Q 20.703125 27.34375 23.046875 37.109375 
L 17.578125 37.109375 
Q 12.5 37.109375 8.203125 35.9375 
L 4.6875 39.453125 
L 23.828125 39.453125 
L 23.828125 49.609375 
L 22.65625 49.609375 
Q 17.578125 49.609375 13.28125 48.4375 
L 9.765625 51.953125 
L 23.828125 51.953125 
L 23.828125 62.890625 
L 19.140625 62.890625 
Q 14.0625 62.890625 9.765625 61.71875 
L 6.25 65.234375 
z
M 95.3125 30.859375 
L 66.796875 25 
L 66.796875 5.078125 
Q 66.796875 0.390625 71.875 0.390625 
L 84.375 0.390625 
Q 87.109375 0.390625 87.6875 5.078125 
Q 88.28125 9.765625 88.671875 17.578125 
L 90.234375 17.578125 
Q 90.625 7.8125 91.984375 5.078125 
Q 93.359375 2.34375 95.703125 1.171875 
Q 93.75 -2.34375 91.40625 -3.3125 
Q 89.0625 -4.296875 85.546875 -4.296875 
L 69.140625 -4.296875 
Q 61.328125 -4.296875 61.328125 3.515625 
L 61.328125 23.828125 
L 50.390625 21.484375 
L 48.4375 19.921875 
L 44.53125 22.65625 
L 61.328125 26.171875 
L 61.328125 43.359375 
L 50.78125 41.015625 
L 49.21875 39.0625 
L 45.3125 41.796875 
L 61.328125 45.703125 
L 61.328125 64.0625 
Q 54.6875 62.109375 44.53125 59.765625 
L 44.140625 61.328125 
Q 58.203125 65.625 67.96875 70.3125 
Q 77.734375 75 82.8125 79.6875 
L 88.671875 72.265625 
L 84.375 71.875 
Q 72.265625 67.578125 66.796875 65.625 
L 66.796875 46.875 
L 78.90625 50 
L 82.03125 55.078125 
L 89.0625 50 
L 66.796875 44.53125 
L 66.796875 27.34375 
L 83.984375 30.859375 
L 87.890625 36.328125 
z
" id="SimSun-8017"/>
     </defs>
     <g transform="translate(12.103812 107.04)rotate(-90)scale(0.12 -0.12)">
      <use xlink:href="#SimSun-80fd"/>
      <use x="100" xlink:href="#SimSun-8017"/>
     </g>
    </g>
   </g>
   <g id="line2d_12">
    <path clip-path="url(#p577a27de16)" d="M 67.077818 51.162208 
L 67.195695 51.271715 
L 67.313572 50.931667 
L 67.43145 51.162208 
L 67.549327 50.954721 
L 67.667204 51.836542 
L 67.785081 51.398513 
L 67.902958 51.565656 
L 68.020835 51.173735 
L 68.138712 51.479203 
L 68.256589 51.133391 
L 68.374467 51.398513 
L 68.610221 51.162208 
L 68.728098 50.954721 
L 68.845975 51.075755 
L 69.199606 50.701125 
L 69.317483 51.000829 
L 69.435361 50.845214 
L 69.553238 51.519547 
L 69.671115 51.162208 
L 69.788992 51.496493 
L 69.906869 51.144918 
L 70.024746 52.142009 
L 70.142623 51.68669 
L 70.2605 51.836542 
L 70.614132 50.683835 
L 70.732009 50.954721 
L 70.849886 50.74147 
L 70.967763 50.879795 
L 71.08564 50.678071 
L 71.203517 50.989302 
L 71.321395 50.845214 
L 71.439272 50.925903 
L 71.557149 50.706889 
L 71.675026 51.035411 
L 71.792903 50.845214 
L 71.91078 51.317824 
L 72.028657 50.908613 
L 72.146534 51.277479 
L 72.500166 50.637727 
L 72.618043 50.845214 
L 72.73592 50.764524 
L 72.971674 50.338023 
L 73.089551 50.683835 
L 73.207428 50.557037 
L 73.325306 51.335114 
L 73.443183 51.162208 
L 73.56106 51.398513 
L 73.678937 51.1161 
L 73.796814 51.369696 
L 73.914691 51.110336 
L 74.032568 51.346641 
L 74.150445 51.162208 
L 74.268323 51.565656 
L 74.3862 51.21408 
L 74.504077 51.41004 
L 74.621954 51.162208 
L 74.739831 51.369696 
L 74.857708 51.179499 
L 74.975585 51.433094 
L 75.093462 51.202553 
L 75.211339 51.940286 
L 75.329217 51.536838 
L 75.447094 51.634818 
L 75.564971 51.317824 
L 75.682848 52.049793 
L 75.800725 51.617528 
L 75.918602 51.767379 
L 76.272234 50.585855 
L 76.390111 50.897086 
L 76.507988 50.72418 
L 76.625865 50.972012 
L 76.743742 50.776051 
L 76.861619 51.006593 
L 76.979496 50.850977 
L 77.097373 51.317824 
L 77.215251 51.029647 
L 77.333128 51.225607 
L 77.451005 51.035411 
L 77.568882 51.836542 
L 77.686759 51.433094 
L 77.804636 51.554129 
L 77.922513 51.21408 
L 78.04039 52.660727 
L 78.394022 40.880062 
L 78.511899 60.182141 
L 78.86553 39.151001 
L 78.983407 113.373805 
L 79.101284 108.469036 
L 79.337039 83.576329 
L 79.454916 144.087683 
L 79.926424 88.429225 
L 80.280056 65.88804 
L 80.633687 56.07274 
L 80.987318 51.969103 
L 81.223073 50.585855 
L 81.34095 50.810633 
L 81.576704 49.963393 
L 81.812458 49.456202 
L 81.930335 49.11039 
L 82.048212 49.185316 
L 82.16609 48.925957 
L 82.283967 49.508074 
L 82.401844 49.121917 
L 82.519721 49.133444 
L 82.637598 48.943247 
L 82.755475 49.410094 
L 82.873352 49.070045 
L 82.991229 49.231424 
L 83.109107 48.885612 
L 83.226984 49.715561 
L 83.344861 49.266005 
L 83.462738 49.410094 
L 83.580615 49.01241 
L 83.698492 49.196843 
L 83.816369 48.781868 
L 83.934246 49.01241 
L 84.287878 48.378421 
L 84.405755 48.499455 
L 84.523632 48.401475 
L 84.641509 49.461965 
L 84.759386 49.075809 
L 84.877263 49.150735 
L 84.99514 49.075809 
L 85.113018 49.444675 
L 85.230895 49.046991 
L 85.348772 49.266005 
L 85.466649 49.075809 
L 85.584526 49.283296 
L 85.702403 48.977829 
L 85.82028 49.046991 
L 86.173912 48.724233 
L 86.291789 48.977829 
L 86.409666 48.960538 
L 86.527543 49.346695 
L 86.64542 49.070045 
L 86.763297 49.185316 
L 86.881174 48.897139 
L 86.999052 49.611817 
L 87.116929 49.139208 
L 87.234806 49.352458 
L 87.588437 48.5398 
L 87.706314 48.83374 
L 87.824191 48.741524 
L 87.942068 49.018173 
L 88.059946 48.810686 
L 88.177823 49.139208 
L 88.2957 48.960538 
L 88.413577 49.410094 
L 88.531454 49.006646 
L 88.649331 49.179552 
L 88.767208 49.064282 
L 88.885085 49.68098 
L 89.002963 49.260242 
L 89.12084 49.513837 
L 89.238717 49.231424 
L 89.356594 49.594527 
L 89.474471 49.30635 
L 89.592348 49.496547 
L 89.710225 49.191079 
L 89.828102 49.38704 
L 89.94598 49.046991 
L 90.063857 49.289059 
L 90.181734 49.064282 
L 90.299611 50.245806 
L 90.417488 49.825068 
L 90.535365 49.963393 
L 90.653242 49.692507 
L 90.771119 50.211225 
L 90.888996 49.663689 
L 91.006874 49.825068 
L 91.124751 49.490783 
L 91.242628 49.617581 
L 91.360505 49.237188 
L 91.478382 49.40433 
L 91.596259 49.116153 
L 91.714136 49.294823 
L 91.832013 48.937484 
L 91.949891 49.168025 
L 92.067768 49.041227 
L 92.185645 49.825068 
L 92.303522 49.467729 
L 92.421399 49.675216 
L 92.539276 49.438911 
L 92.657153 50.25157 
L 92.77503 49.704034 
L 92.892908 49.951866 
L 93.246539 48.954774 
L 93.364416 49.144971 
L 93.482293 49.046991 
L 93.60017 49.40433 
L 93.718047 49.104626 
L 93.835925 49.421621 
L 93.953802 49.277532 
L 94.071679 49.773196 
L 94.189556 49.565709 
L 94.307433 49.669453 
L 94.42531 49.415857 
L 94.543187 50.101718 
L 94.661064 49.732852 
L 94.778941 49.802014 
L 95.014696 49.248715 
L 95.132573 48.977829 
L 95.368327 49.191079 
L 95.604081 48.695415 
L 95.721958 49.064282 
L 95.839836 49.0297 
L 95.957713 50.05561 
L 96.07559 49.761669 
L 96.193467 49.917285 
L 96.311344 49.744379 
L 96.429221 50.142063 
L 96.547098 49.784723 
L 96.664975 50.049846 
L 96.782853 49.744379 
L 96.90073 50.234279 
L 97.018607 49.928812 
L 97.136484 50.107481 
L 97.254361 49.819305 
L 97.372238 50.084427 
L 97.490115 49.750142 
L 97.607992 49.934575 
L 97.725869 49.709797 
L 97.843747 50.418712 
L 97.961624 50.107481 
L 98.079501 50.216989 
L 98.197378 49.980684 
L 98.315255 50.493638 
L 98.433132 50.130536 
L 98.551009 50.286151 
L 98.904641 49.381276 
L 99.022518 49.513837 
L 99.140395 49.438911 
L 99.258272 49.727088 
L 99.376149 49.531128 
L 99.494026 49.790487 
L 99.611903 49.646399 
L 99.729781 50.078664 
L 99.847658 49.905758 
L 99.965535 50.015265 
L 100.083412 49.899994 
L 100.201289 50.591618 
L 100.319166 50.257333 
L 100.437043 50.343786 
L 100.790675 49.767433 
L 100.908552 49.97492 
L 101.026429 49.790487 
L 101.262183 49.300586 
L 101.38006 49.525364 
L 101.497937 49.456202 
L 101.615814 49.997974 
L 101.733692 49.917285 
L 101.851569 50.136299 
L 102.087323 49.963393 
L 102.2052 49.813541 
L 102.323077 50.107481 
L 102.440954 49.853886 
L 102.558831 51.853832 
L 102.912463 36.989676 
L 103.03034 71.369162 
L 103.383971 46.833794 
L 103.501848 92.821039 
L 103.85548 54.384024 
L 103.973357 125.304322 
L 104.091234 117.460151 
L 104.326988 88.290901 
L 104.444865 149.413189 
L 104.916374 89.858582 
L 105.270005 65.847695 
L 105.623637 55.767273 
L 105.859391 52.568511 
L 106.213022 49.519601 
L 106.448776 48.147879 
L 106.684531 47.657979 
L 106.920285 46.839557 
L 107.038162 47.052808 
L 107.156039 46.937537 
L 107.273916 47.681033 
L 107.391793 47.473546 
L 107.50967 47.750196 
L 107.627548 47.387093 
L 107.745425 47.623398 
L 107.863302 47.369802 
L 107.981179 47.623398 
L 108.216933 47.283349 
L 108.33481 47.145024 
L 108.452687 47.346748 
L 108.806319 46.833794 
L 108.924196 47.225714 
L 109.042073 47.087389 
L 109.15995 47.767486 
L 109.277827 47.617634 
L 109.395704 47.698324 
L 109.513582 47.415911 
L 109.631459 47.900047 
L 109.749336 47.629161 
L 109.867213 47.853939 
L 109.98509 47.686797 
L 110.102967 46.753104 
L 110.220844 46.747341 
L 110.338721 47.052808 
L 110.692353 47.029754 
L 110.81023 47.306403 
L 110.928107 47.21995 
L 111.045984 47.606107 
L 111.163861 47.473546 
L 111.281738 47.67527 
L 111.399615 47.519654 
L 111.517493 48.107535 
L 111.63537 47.767486 
L 111.753247 48.044136 
L 111.871124 47.721378 
L 111.989001 48.159407 
L 112.106878 47.784777 
L 112.224755 47.934629 
L 112.342632 47.634925 
L 112.46051 47.761723 
L 112.578387 47.554235 
L 112.696264 47.698324 
L 112.814141 47.57729 
L 112.932018 48.470637 
L 113.049895 48.055663 
L 113.167772 48.147879 
L 113.285649 47.980737 
L 113.403526 48.26315 
L 113.521404 47.88852 
L 113.639281 48.124825 
L 113.757158 47.848176 
L 113.875035 47.992264 
L 113.992912 47.721378 
L 114.110789 47.853939 
L 114.464421 47.663743 
L 114.582298 47.848176 
L 114.700175 47.761723 
L 114.818052 48.505219 
L 114.935929 48.188224 
L 115.053806 48.274677 
L 115.171683 47.986501 
L 115.28956 48.810686 
L 115.407438 48.436056 
L 115.525315 48.585908 
L 115.878946 47.727141 
L 115.996823 47.928865 
L 116.1147 47.882757 
L 116.232577 47.992264 
L 116.350454 47.819358 
L 116.468332 48.015318 
L 116.586209 47.946156 
L 116.704086 48.147879 
L 116.821963 47.911575 
L 116.93984 48.055663 
L 117.057717 47.905811 
L 117.175594 48.413002 
L 117.293471 48.142116 
L 117.411349 48.36113 
L 117.647103 48.032609 
L 117.76498 47.894284 
L 117.882857 48.159407 
L 118.000734 48.026845 
L 118.118611 47.536945 
L 118.236488 47.531181 
L 118.472243 47.807831 
L 118.59012 48.683888 
L 118.707997 48.493692 
L 118.825874 48.522509 
L 118.943751 48.407239 
L 119.061628 48.804922 
L 119.179505 48.470637 
L 119.297383 48.747287 
L 119.41526 48.44182 
L 119.533137 49.023937 
L 119.651014 48.712706 
L 119.768891 48.753051 
L 119.886768 48.389948 
L 120.004645 48.799159 
L 120.122522 48.562854 
L 120.240399 48.666598 
L 120.358277 48.464874 
L 120.476154 49.473493 
L 120.594031 49.006646 
L 120.711908 49.11039 
L 120.829785 48.683888 
L 120.947662 49.48502 
L 121.183416 49.133444 
L 121.537048 48.274677 
L 121.654925 48.424529 
L 121.772802 48.355367 
L 121.890679 48.729997 
L 122.008556 48.510982 
L 122.126433 48.706942 
L 122.244311 48.522509 
L 122.362188 48.902903 
L 122.480065 48.73576 
L 122.597942 48.83374 
L 122.715819 48.753051 
L 122.833696 49.369749 
L 122.951573 49.035464 
L 123.06945 49.087336 
L 123.305205 48.776105 
L 123.423082 48.580145 
L 123.540959 48.718469 
L 123.658836 48.55709 
L 123.89459 48.038372 
L 124.012467 48.251623 
L 124.130344 48.159407 
L 124.248222 49.087336 
L 124.366099 48.83374 
L 124.483976 49.000883 
L 124.601853 48.862558 
L 124.71973 49.196843 
L 124.837607 48.983592 
L 124.955484 49.162262 
L 125.309116 48.487928 
L 125.426993 48.689652 
L 125.54487 48.608962 
L 125.780624 48.217042 
L 125.898501 48.597435 
L 126.016378 48.574381 
L 126.134255 49.283296 
L 126.252133 48.983592 
L 126.37001 49.150735 
L 126.487887 48.949011 
L 126.605764 49.565709 
L 126.723641 49.242951 
L 126.841518 49.50231 
L 127.19515 48.83374 
L 127.313027 49.075809 
L 127.430904 48.851031 
L 127.548781 51.88265 
L 127.902412 33.254905 
L 128.020289 72.366253 
L 128.373921 47.150788 
L 128.491798 93.207196 
L 128.845429 53.571366 
L 128.963306 125.771168 
L 129.081184 117.696456 
L 129.316938 88.060359 
L 129.434815 151.384318 
L 129.906323 90.331192 
L 130.259955 65.467302 
L 130.731463 52.856688 
L 131.085095 49.0297 
L 131.438726 46.989409 
L 131.556603 46.914483 
L 131.67448 46.562907 
L 131.792357 46.908719 
L 132.145989 46.274731 
L 132.263866 46.637833 
L 132.381743 46.366947 
L 132.49962 46.476454 
L 132.853251 45.715668 
L 132.971128 45.923155 
L 133.089006 45.859756 
L 133.206883 46.153696 
L 133.32476 46.044189 
L 133.442637 46.280494 
L 133.560514 46.217095 
L 133.678391 46.666651 
L 133.796268 46.418819 
L 133.914145 46.557144 
L 134.032023 46.395765 
L 134.1499 46.908719 
L 134.267777 46.614779 
L 134.385654 46.735813 
L 134.503531 46.464927 
L 134.621408 47.041281 
L 134.739285 46.758868 
L 134.857162 46.989409 
L 134.97504 46.701232 
L 135.092917 46.776158 
L 135.210794 46.4534 
L 135.328671 46.603252 
L 135.446548 46.395765 
L 135.564425 47.519654 
L 135.682302 47.162315 
L 135.800179 47.352512 
L 135.918056 47.000936 
L 136.035934 47.502364 
L 136.153811 47.110443 
L 136.271688 47.231477 
L 136.389565 46.977882 
L 136.507442 47.047044 
L 136.625319 46.804976 
L 136.743196 46.845321 
L 137.096828 46.511036 
L 137.332582 46.55138 
L 137.450459 47.531181 
L 137.568336 47.225714 
L 137.686213 47.243005 
L 137.80409 47.081626 
L 137.921968 47.715614 
L 138.039845 47.358275 
L 138.157722 47.473546 
L 138.511353 46.568671 
L 138.62923 46.724286 
L 138.747107 46.603252 
L 138.864984 46.845321 
L 138.982862 46.660887 
L 139.100739 46.931774 
L 139.218616 46.82803 
L 139.336493 47.410147 
L 139.45437 47.156551 
L 139.572247 47.21995 
L 139.690124 47.029754 
L 139.808001 47.663743 
L 139.925879 47.312167 
L 140.043756 47.513891 
L 140.397387 47.081626 
L 140.515264 47.323694 
L 140.633141 47.196896 
L 140.868896 46.539853 
L 141.222527 47.69256 
L 141.340404 47.583053 
L 141.458281 47.646452 
L 141.576158 47.536945 
L 141.694035 47.900047 
L 141.811913 47.629161 
L 141.92979 47.715614 
L 142.047667 47.536945 
L 142.165544 48.153643 
L 142.283421 47.761723 
L 142.401298 47.905811 
L 142.519175 47.588817 
L 142.637052 48.078717 
L 142.754929 47.69256 
L 142.872807 47.755959 
L 142.990684 47.57729 
L 143.108561 48.487928 
L 143.226438 48.107535 
L 143.344315 48.228569 
L 143.462192 47.917338 
L 143.580069 48.655071 
L 143.697946 48.251623 
L 143.815824 48.34384 
L 144.169455 47.525418 
L 144.287332 47.750196 
L 144.405209 47.559999 
L 144.523086 47.951919 
L 144.640963 47.755959 
L 144.758841 47.882757 
L 144.876718 47.830885 
L 144.994595 48.401475 
L 145.230349 48.096008 
L 145.348226 47.88852 
L 145.466103 48.551327 
L 145.58398 48.268914 
L 145.701857 48.401475 
L 145.819735 48.228569 
L 145.937612 48.366894 
L 146.055489 48.084481 
L 146.173366 48.268914 
L 146.526997 47.346748 
L 146.644874 47.663743 
L 146.762752 47.611871 
L 146.880629 48.309258 
L 146.998506 48.113298 
L 147.116383 48.188224 
L 147.23426 48.026845 
L 147.352137 48.338076 
L 147.470014 48.078717 
L 147.587891 48.286204 
L 147.941523 47.865466 
L 148.0594 48.113298 
L 148.413031 47.755959 
L 148.530908 48.044136 
L 148.648785 47.957683 
L 148.766663 48.672361 
L 148.88454 48.424529 
L 149.002417 48.603199 
L 149.120294 48.464874 
L 149.238171 49.006646 
L 149.356048 48.660834 
L 149.473925 48.73576 
L 149.827557 48.280441 
L 149.945434 48.545563 
L 150.063311 48.257387 
L 150.181188 48.885612 
L 150.299065 48.562854 
L 150.416942 48.712706 
L 150.534819 48.493692 
L 150.652697 49.231424 
L 150.770574 48.966301 
L 150.888451 49.075809 
L 151.006328 48.626253 
L 151.124205 49.496547 
L 151.242082 49.075809 
L 151.359959 49.237188 
L 151.713591 48.603199 
L 151.831468 48.781868 
L 151.949345 48.591672 
L 152.185099 47.992264 
L 152.302976 48.326549 
L 152.420853 48.228569 
L 152.53873 51.738562 
L 152.892362 30.459591 
L 153.010239 74.487234 
L 153.36387 48.372657 
L 153.481747 96.688371 
L 153.835379 55.231264 
L 153.953256 130.243672 
L 154.071133 121.310192 
L 154.306887 89.973853 
L 154.424764 155.868348 
L 154.896273 91.218776 
L 155.249904 65.576809 
L 155.485658 56.216828 
L 155.83929 49.97492 
L 156.192921 47.329458 
L 156.310798 47.306403 
L 156.546553 46.53409 
L 156.66443 46.188278 
L 156.782307 46.482218 
L 156.900184 46.222859 
L 157.018061 46.292021 
L 157.135938 46.049953 
L 157.253815 46.562907 
L 157.371692 46.055716 
L 157.48957 46.194041 
L 157.843201 45.444782 
L 157.961078 45.623451 
L 158.078955 45.450545 
L 158.196832 46.326602 
L 158.314709 46.06148 
L 158.432586 46.263204 
L 158.550464 46.067243 
L 158.668341 46.366947 
L 158.786218 46.119115 
L 158.904095 46.147933 
L 159.611358 45.560052 
L 159.729235 45.513944 
L 159.964989 45.709904 
L 160.082866 46.603252 
L 160.200743 46.395765 
L 160.31862 46.53409 
L 160.436498 46.274731 
L 160.554375 47.018227 
L 160.672252 46.822266 
L 160.790129 46.954828 
L 160.908006 46.724286 
L 161.14376 46.003844 
L 161.261637 46.165223 
L 161.497392 46.067243 
L 161.615269 46.026899 
L 161.733146 46.297785 
L 161.851023 46.15946 
L 161.9689 46.511036 
L 162.086777 46.447637 
L 162.204654 46.585962 
L 162.322531 46.384238 
L 162.440409 46.753104 
L 162.558286 46.545617 
L 162.676163 46.799212 
L 162.79404 46.597489 
L 162.911917 46.712759 
L 163.029794 46.522563 
L 163.147671 46.776158 
L 163.501303 46.124879 
L 163.61918 46.470691 
L 163.737057 46.372711 
L 163.854934 47.133497 
L 163.972811 46.902956 
L 164.090688 46.949064 
L 164.208565 46.799212 
L 164.326442 47.133497 
L 164.44432 46.931774 
L 164.562197 47.156551 
L 164.680074 46.972118 
L 164.797951 47.387093 
L 164.915828 47.047044 
L 165.033705 47.191133 
L 165.151582 46.885665 
L 165.269459 47.139261 
L 165.387337 46.954828 
L 165.505214 47.087389 
L 165.623091 46.960591 
L 165.740968 47.784777 
L 165.858845 47.433201 
L 165.976722 47.652215 
L 166.094599 47.375566 
L 166.212476 47.923102 
L 166.330354 47.715614 
L 166.448231 47.905811 
L 166.801862 46.960591 
L 166.919739 47.116207 
L 167.037616 47.000936 
L 167.273371 46.989409 
L 167.391248 47.30064 
L 167.509125 47.173842 
L 167.627002 47.681033 
L 167.744879 47.456255 
L 167.862756 47.629161 
L 167.980633 47.427438 
L 168.09851 47.992264 
L 168.216387 47.686797 
L 168.334265 47.946156 
L 168.570019 47.565762 
L 168.687896 47.387093 
L 168.805773 47.542708 
L 168.92365 47.289113 
L 169.041527 46.724286 
L 169.159404 46.735813 
L 169.277282 47.12197 
L 169.395159 47.018227 
L 169.513036 47.923102 
L 169.630913 47.767486 
L 169.74879 47.934629 
L 169.866667 47.634925 
L 169.984544 47.963446 
L 170.102421 47.761723 
L 170.220299 47.957683 
L 170.338176 47.836649 
L 170.57393 47.323694 
L 170.691807 47.485073 
L 171.045438 47.133497 
L 171.163315 47.502364 
L 171.281193 47.312167 
L 171.39907 48.124825 
L 171.516947 47.88852 
L 171.634824 48.021082 
L 171.752701 47.796304 
L 171.870578 48.274677 
L 171.988455 48.038372 
L 172.106332 48.24586 
L 172.22421 48.072954 
L 172.342087 48.199751 
L 172.459964 47.946156 
L 172.577841 48.142116 
L 172.695718 47.934629 
L 172.813595 48.464874 
L 172.931472 48.24586 
L 173.049349 48.470637 
L 173.167227 48.268914 
L 173.285104 48.632016 
L 173.402981 48.372657 
L 173.520858 48.63778 
L 173.638735 48.217042 
L 173.756612 48.804922 
L 173.874489 48.493692 
L 173.992366 48.55709 
L 174.110243 48.326549 
L 174.228121 48.36113 
L 174.345998 48.136352 
L 174.463875 48.291968 
L 174.581752 48.199751 
L 174.817506 47.57729 
L 175.05326 47.796304 
L 175.171138 48.655071 
L 175.289015 48.372657 
L 175.406892 48.551327 
L 175.524769 48.36113 
L 175.642646 48.937484 
L 175.760523 48.643544 
L 175.8784 48.885612 
L 176.232032 48.251623 
L 176.349909 48.303495 
L 176.467786 48.026845 
L 176.585663 48.049899 
L 176.70354 47.900047 
L 176.821417 48.107535 
L 176.939294 48.072954 
L 177.057171 48.764578 
L 177.175049 48.522509 
L 177.292926 48.695415 
L 177.410803 48.34384 
L 177.52868 51.951813 
L 177.882311 27.479843 
L 178.000188 75.68605 
L 178.35382 48.995119 
L 178.471697 100.382797 
L 178.825328 56.850817 
L 178.943205 134.197457 
L 179.061083 124.480137 
L 179.296837 91.512717 
L 179.414714 159.666518 
L 179.886222 92.475227 
L 180.239854 65.818878 
L 180.593485 54.026685 
L 180.829239 51.225607 
L 181.182871 47.738669 
L 181.300748 47.69256 
L 181.654379 46.176751 
L 181.772256 46.07877 
L 181.890133 45.663796 
L 182.008011 45.732958 
L 182.361642 45.122024 
L 182.479519 45.352565 
L 182.597396 45.266112 
L 182.715273 45.825175 
L 182.83315 45.542762 
L 182.951028 45.692614 
L 183.068905 45.39291 
L 183.186782 45.940446 
L 183.304659 45.68685 
L 183.422536 45.905864 
L 183.776167 45.110497 
L 183.894044 45.398673 
L 184.011922 45.21424 
L 184.129799 45.283403 
L 184.247676 45.220004 
L 184.365553 45.50818 
L 184.48343 45.387146 
L 184.601307 45.86552 
L 184.719184 45.669559 
L 184.837061 45.790594 
L 184.954939 45.58887 
L 185.072816 46.084534 
L 185.190693 45.888574 
L 185.30857 46.073007 
L 185.426447 45.928919 
L 185.544324 45.519708 
L 185.662201 45.519708 
L 185.780078 45.825175 
L 185.897956 45.756012 
L 186.015833 45.064388 
L 186.13371 45.075915 
L 186.251587 45.554289 
L 186.369464 45.536998 
L 186.487341 46.418819 
L 186.605218 46.142169 
L 186.723095 46.251676 
L 186.840972 46.07877 
L 186.95885 46.482218 
L 187.076727 46.407292 
L 187.194604 46.580198 
L 187.312481 46.384238 
L 187.430358 46.73005 
L 187.548235 46.378474 
L 187.666112 46.539853 
L 187.783989 46.251676 
L 187.901867 46.585962 
L 188.019744 46.401528 
L 188.137621 46.505272 
L 188.255498 46.441873 
L 188.373375 47.093153 
L 188.491252 46.747341 
L 188.609129 46.989409 
L 188.727006 46.609016 
L 188.844884 47.087389 
L 188.962761 46.839557 
L 189.080638 46.914483 
L 189.434269 46.315075 
L 189.552146 46.413055 
L 189.7879 46.332366 
L 189.905778 46.251676 
L 190.023655 46.505272 
L 190.141532 46.366947 
L 190.259409 46.989409 
L 190.377286 46.712759 
L 190.495163 46.868375 
L 190.61304 46.747341 
L 190.730917 47.704087 
L 190.848795 47.387093 
L 190.966672 47.519654 
L 191.084549 47.237241 
L 191.202426 47.329458 
L 191.320303 46.937537 
L 191.43818 47.12197 
L 191.556057 46.793449 
L 191.673934 46.067243 
L 191.791812 46.147933 
L 192.145443 47.173842 
L 192.26332 46.897192 
L 192.381197 47.041281 
L 192.499074 46.793449 
L 192.616951 47.12197 
L 192.734829 46.862611 
L 192.852706 47.075862 
L 193.206337 46.753104 
L 193.442091 46.897192 
L 193.677845 46.758868 
L 193.795723 47.018227 
L 193.9136 46.931774 
L 194.031477 47.611871 
L 194.149354 47.335221 
L 194.267231 47.565762 
L 194.385108 47.271822 
L 194.502985 47.686797 
L 194.620862 47.427438 
L 194.73874 47.738669 
L 194.856617 47.392856 
L 194.974494 47.657979 
L 195.092371 47.329458 
L 195.210248 47.565762 
L 195.328125 47.364039 
L 195.446002 47.784777 
L 195.563879 47.542708 
L 195.681757 47.738669 
L 195.799634 47.467782 
L 195.917511 48.153643 
L 196.035388 47.721378 
L 196.153265 47.865466 
L 196.271142 47.513891 
L 196.389019 48.395712 
L 196.506896 48.101771 
L 196.624773 48.188224 
L 196.742651 47.825122 
L 196.860528 47.88852 
L 196.978405 47.571526 
L 197.096282 47.830885 
L 197.449913 46.977882 
L 197.56779 47.260295 
L 197.685668 47.127734 
L 197.803545 48.274677 
L 197.921422 47.963446 
L 198.039299 48.170934 
L 198.157176 47.784777 
L 198.275053 48.395712 
L 198.39293 48.199751 
L 198.510807 48.280441 
L 198.864439 47.784777 
L 198.982316 47.992264 
L 199.335947 47.444728 
L 199.453824 47.738669 
L 199.571701 47.600344 
L 199.689579 48.395712 
L 199.807456 48.078717 
L 199.925333 48.124825 
L 200.04321 47.825122 
L 200.161087 48.326549 
L 200.278964 47.974973 
L 200.396841 48.211278 
L 200.514718 47.998028 
L 200.750473 47.415911 
L 200.86835 47.761723 
L 201.104104 47.623398 
L 201.221981 47.629161 
L 201.339858 47.934629 
L 201.457735 47.842412 
L 201.575613 48.142116 
L 201.69349 47.928865 
L 201.811367 48.06719 
L 201.929244 47.900047 
L 202.047121 48.701179 
L 202.164998 48.366894 
L 202.282875 48.499455 
L 202.400752 48.320786 
L 202.518629 52.17659 
L 202.872261 24.903543 
L 202.990138 75.876246 
L 203.343769 49.156498 
L 203.461646 99.616247 
L 203.815278 56.383971 
L 203.933155 138.623851 
L 204.051032 128.39934 
L 204.286786 93.725914 
L 204.404663 162.997841 
L 204.876172 92.976654 
L 205.229803 66.003311 
L 205.701312 52.153536 
L 206.408574 46.136406 
L 206.526452 45.986554 
L 206.644329 45.536998 
L 206.762206 45.577343 
L 206.880083 45.133551 
L 206.99796 45.254585 
L 207.115837 45.075915 
L 207.233714 45.289166 
L 207.351591 45.09897 
L 207.469469 45.185423 
L 207.587346 45.041334 
L 207.705223 45.560052 
L 207.8231 45.433255 
L 207.940977 45.692614 
L 208.176731 45.467836 
L 208.294608 45.208477 
L 208.412486 45.467836 
L 208.530363 45.243058 
L 208.766117 44.718576 
L 208.883994 44.943354 
L 209.001871 44.914536 
L 209.119748 45.894337 
L 209.237625 45.600397 
L 209.355502 45.68685 
L 209.47338 45.565816 
L 209.591257 45.951973 
L 209.709134 45.727195 
L 209.827011 45.911628 
L 209.944888 45.779067 
L 210.062765 46.211332 
L 210.180642 45.928919 
L 210.298519 46.084534 
L 210.416397 45.773303 
L 210.534274 46.211332 
L 210.652151 45.928919 
L 210.770028 46.003844 
L 210.887905 45.761776 
L 211.005782 46.781922 
L 211.123659 46.315075 
L 211.241536 46.55138 
L 211.359414 46.119115 
L 211.477291 46.758868 
L 211.595168 46.332366 
L 211.713045 46.413055 
L 212.066676 45.78483 
L 212.184553 45.894337 
L 212.30243 45.830938 
L 212.420308 45.917391 
L 212.538185 45.732958 
L 212.656062 45.951973 
L 212.773939 45.877047 
L 212.891816 46.372711 
L 213.009693 46.038426 
L 213.12757 46.199805 
L 213.245447 45.9635 
L 213.363325 46.776158 
L 213.481202 46.447637 
L 213.599079 46.626306 
L 213.95271 46.119115 
L 214.070587 46.505272 
L 214.188464 46.320839 
L 214.424219 45.830938 
L 214.542096 46.073007 
L 214.659973 46.055716 
L 214.77785 46.954828 
L 214.895727 46.678178 
L 215.013604 46.822266 
L 215.131481 46.580198 
L 215.249358 46.960591 
L 215.367236 46.614779 
L 215.485113 46.804976 
L 215.720867 46.309312 
L 215.838744 46.124879 
L 215.956621 46.424583 
L 216.074498 46.33813 
L 216.310253 46.049953 
L 216.42813 46.476454 
L 216.546007 46.401528 
L 216.663884 47.237241 
L 216.781761 46.885665 
L 216.899638 47.087389 
L 217.017515 46.787685 
L 217.135392 47.283349 
L 217.25327 47.098916 
L 217.371147 47.340985 
L 217.489024 47.075862 
L 217.606901 47.168079 
L 217.724778 46.833794 
L 217.842655 47.035517 
L 217.960532 46.787685 
L 218.078409 47.196896 
L 218.196287 46.977882 
L 218.314164 47.243005 
L 218.432041 47.0067 
L 218.549918 47.490837 
L 218.667795 47.098916 
L 218.785672 47.323694 
L 218.903549 47.041281 
L 219.021426 47.825122 
L 219.139303 47.392856 
L 219.257181 47.462019 
L 219.610812 47.087389 
L 219.728689 47.162315 
L 219.846566 47.052808 
L 219.964443 46.53409 
L 220.08232 46.580198 
L 220.200198 46.943301 
L 220.318075 46.937537 
L 220.435952 47.998028 
L 220.553829 47.738669 
L 220.671706 47.963446 
L 220.789583 47.640688 
L 220.90746 48.170934 
L 221.025337 47.842412 
L 221.143215 48.026845 
L 221.261092 47.704087 
L 221.378969 47.732905 
L 221.496846 47.456255 
L 221.614723 47.634925 
L 221.968354 47.133497 
L 222.086231 47.352512 
L 222.204109 47.335221 
L 222.321986 47.686797 
L 222.439863 47.421674 
L 222.55774 47.657979 
L 222.675617 47.404383 
L 222.793494 47.761723 
L 222.911371 47.57729 
L 223.029248 47.87123 
L 223.38288 47.329458 
L 223.500757 47.531181 
L 223.618634 47.30064 
L 223.736511 47.456255 
L 223.854388 47.352512 
L 223.972265 47.646452 
L 224.090143 47.531181 
L 224.20802 47.848176 
L 224.325897 47.721378 
L 224.443774 47.819358 
L 224.561651 47.686797 
L 224.679528 48.34384 
L 224.797405 48.021082 
L 224.915282 48.291968 
L 225.033159 47.951919 
L 225.151037 48.320786 
L 225.268914 48.044136 
L 225.386791 48.315022 
L 225.740422 47.69256 
L 225.858299 47.882757 
L 225.976176 47.819358 
L 226.094054 48.827977 
L 226.211931 48.482165 
L 226.329808 48.63778 
L 226.447685 48.286204 
L 226.565562 48.591672 
L 226.683439 48.384184 
L 226.801316 48.528273 
L 227.154948 47.980737 
L 227.272825 48.205515 
L 227.390702 47.986501 
L 227.508579 51.39275 
L 227.86221 21.330151 
L 227.980087 77.956882 
L 228.333719 49.97492 
L 228.451596 97.42034 
L 228.805227 55.231264 
L 228.923104 136.231984 
L 229.040982 126.485847 
L 229.276736 92.75764 
L 229.394613 164.836408 
L 229.866121 93.89882 
L 230.219753 66.406758 
L 230.573384 54.683728 
L 230.927016 48.701179 
L 231.398524 45.565816 
L 231.516401 45.634978 
L 231.634278 45.4102 
L 231.752155 46.130642 
L 231.870032 45.750249 
L 231.98791 45.894337 
L 232.105787 45.485126 
L 232.223664 45.715668 
L 232.341541 45.473599 
L 232.459418 45.68685 
L 232.577295 45.462072 
L 232.695172 45.934682 
L 232.813049 45.531235 
L 232.930927 45.727195 
L 233.048804 45.329511 
L 233.166681 45.715668 
L 233.284558 45.479363 
L 233.402435 45.640742 
L 233.520312 45.415964 
L 233.638189 46.038426 
L 233.756066 45.819411 
L 233.873944 46.130642 
L 233.991821 45.853993 
L 234.109698 46.217095 
L 234.227575 45.88281 
L 234.345452 45.9635 
L 234.699083 45.421727 
L 234.81696 45.531235 
L 234.934838 45.4102 
L 235.052715 45.462072 
L 235.170592 45.329511 
L 235.524223 45.86552 
L 235.6421 45.600397 
L 235.759977 45.911628 
L 235.877855 45.715668 
L 235.995732 46.407292 
L 236.113609 46.234386 
L 236.231486 46.476454 
L 236.585117 45.877047 
L 236.702994 46.107588 
L 236.820872 45.871283 
L 236.938749 45.300693 
L 237.056626 45.404437 
L 237.410257 46.447637 
L 237.528134 46.211332 
L 237.646011 46.413055 
L 237.763888 46.073007 
L 237.881766 46.297785 
L 237.999643 46.06148 
L 238.11752 46.309312 
L 238.471151 45.940446 
L 238.589028 46.170987 
L 238.94266 45.836702 
L 239.060537 46.119115 
L 239.178414 45.98079 
L 239.296291 46.580198 
L 239.414168 46.297785 
L 239.532045 46.476454 
L 239.649922 46.25744 
L 239.7678 46.73005 
L 239.885677 46.476454 
L 240.003554 46.776158 
L 240.121431 46.580198 
L 240.239308 46.787685 
L 240.357185 46.528326 
L 240.475062 46.660887 
L 240.592939 46.390001 
L 240.710816 46.902956 
L 240.828694 46.580198 
L 240.946571 46.822266 
L 241.064448 46.557144 
L 241.182325 47.162315 
L 241.300202 46.770395 
L 241.418079 46.954828 
L 241.535956 46.666651 
L 241.653833 47.473546 
L 241.771711 47.196896 
L 241.889588 47.266059 
L 242.243219 46.706996 
L 242.361096 47.070098 
L 242.714728 46.395765 
L 242.832605 46.706996 
L 242.950482 46.64936 
L 243.068359 47.59458 
L 243.186236 47.289113 
L 243.304113 47.438965 
L 243.42199 47.127734 
L 243.539867 47.479309 
L 243.657745 47.21995 
L 243.775622 47.415911 
L 243.893499 47.21995 
L 244.011376 47.271822 
L 244.129253 47.081626 
L 244.24713 47.323694 
L 244.600761 46.804976 
L 244.718639 46.977882 
L 244.836516 46.822266 
L 244.954393 47.381329 
L 245.07227 47.20266 
L 245.190147 47.485073 
L 245.308024 47.283349 
L 245.425901 47.565762 
L 245.543778 47.346748 
L 245.661656 47.59458 
L 245.779533 47.392856 
L 246.015287 46.851084 
L 246.133164 47.191133 
L 246.251041 47.145024 
L 246.368918 46.822266 
L 246.486795 46.833794 
L 246.604673 47.196896 
L 246.72255 47.098916 
L 246.840427 47.427438 
L 246.958304 47.369802 
L 247.076181 47.657979 
L 247.194058 47.381329 
L 247.311935 48.136352 
L 247.429812 47.859703 
L 247.547689 47.96921 
L 247.665567 47.819358 
L 247.783444 48.228569 
L 247.901321 47.836649 
L 248.019198 48.061426 
L 248.372829 47.427438 
L 248.490706 47.571526 
L 248.608584 47.525418 
L 248.726461 48.453347 
L 248.844338 48.124825 
L 248.962215 48.355367 
L 249.080092 48.049899 
L 249.197969 48.286204 
L 249.315846 47.928865 
L 249.433723 48.032609 
L 249.551601 47.87123 
L 249.669478 47.998028 
L 249.787355 47.750196 
L 249.905232 47.876993 
L 250.258863 47.4966 
L 250.37674 47.715614 
L 250.494617 47.629161 
L 250.612495 48.36113 
L 250.730372 48.101771 
L 250.848249 48.286204 
L 250.966126 47.992264 
L 251.084003 48.620489 
L 251.20188 48.384184 
L 251.319757 48.499455 
L 251.673389 47.876993 
L 251.791266 48.078717 
L 252.02702 47.807831 
L 252.144897 47.732905 
L 252.380651 47.940392 
L 252.498529 51.323587 
L 252.85216 18.413803 
L 252.970037 80.18737 
L 253.323668 51.369696 
L 253.441546 100.46925 
L 253.795177 56.522296 
L 253.913054 139.125279 
L 254.030931 128.946876 
L 254.266685 94.083253 
L 254.384562 169.136006 
L 254.856071 95.259014 
L 255.209702 66.925476 
L 255.563334 54.787472 
L 255.916965 49.064282 
L 256.152719 47.21995 
L 256.270596 47.30064 
L 256.506351 46.35542 
L 256.624228 45.871283 
L 256.742105 46.130642 
L 256.977859 45.721431 
L 257.33149 44.862665 
L 257.449368 45.104733 
L 257.685122 44.805029 
L 257.802999 44.660941 
L 257.920876 44.977935 
L 258.038753 44.862665 
L 258.15663 45.323747 
L 258.274507 45.064388 
L 258.392385 45.352565 
L 258.510262 45.064388 
L 258.628139 45.86552 
L 258.746016 45.663796 
L 258.863893 45.76754 
L 259.217524 45.156605 
L 259.335402 45.456309 
L 259.689033 44.707049 
L 259.80691 45.052861 
L 259.924787 45.012516 
L 260.042664 46.038426 
L 260.160541 45.669559 
L 260.278418 45.917391 
L 260.396296 45.669559 
L 260.514173 45.86552 
L 260.63205 45.658032 
L 260.749927 45.802121 
L 261.103558 45.087442 
L 261.221435 45.369856 
L 261.339313 45.341038 
L 261.575067 45.000989 
L 261.692944 45.375619 
L 261.810821 45.317984 
L 261.928698 45.946209 
L 262.046575 45.721431 
L 262.164452 45.986554 
L 262.28233 45.78483 
L 262.400207 46.228622 
L 262.518084 46.021135 
L 262.635961 46.292021 
L 262.753838 46.113352 
L 262.871715 46.447637 
L 262.989592 46.240149 
L 263.107469 46.522563 
L 263.225346 46.268967 
L 263.343224 46.528326 
L 263.461101 46.222859 
L 263.578978 46.35542 
L 263.696855 46.182514 
L 263.814732 46.4534 
L 263.932609 46.292021 
L 264.050486 46.591725 
L 264.168363 46.361184 
L 264.286241 46.937537 
L 264.404118 46.63207 
L 264.521995 46.799212 
L 264.639872 46.447637 
L 264.757749 46.562907 
L 264.875626 46.326602 
L 264.993503 46.528326 
L 265.11138 46.343893 
L 265.347135 45.877047 
L 265.465012 46.084534 
L 265.582889 46.038426 
L 265.700766 46.995173 
L 265.818643 46.706996 
L 265.93652 46.804976 
L 266.054397 46.574434 
L 266.172275 46.908719 
L 266.290152 46.689705 
L 266.408029 46.724286 
L 266.525906 46.574434 
L 266.643783 46.695469 
L 266.76166 46.401528 
L 266.879537 46.678178 
L 267.233169 46.268967 
L 267.351046 46.580198 
L 267.468923 46.424583 
L 267.5868 46.822266 
L 267.704677 46.464927 
L 267.822554 46.810739 
L 267.940431 46.568671 
L 268.058308 46.954828 
L 268.176186 46.741577 
L 268.294063 46.966355 
L 268.647694 46.372711 
L 268.765571 46.63207 
L 268.883448 46.499508 
L 269.001325 46.568671 
L 269.119203 46.407292 
L 269.23708 46.816503 
L 269.354957 46.695469 
L 269.472834 47.018227 
L 269.590711 46.753104 
L 269.708588 46.983645 
L 269.826465 46.770395 
L 269.944342 47.559999 
L 270.062219 47.340985 
L 270.180097 47.57729 
L 270.297974 47.340985 
L 270.415851 47.629161 
L 270.533728 47.358275 
L 270.651605 47.67527 
L 271.005236 47.139261 
L 271.123114 47.208423 
L 271.240991 47.110443 
L 271.358868 48.274677 
L 271.476745 47.946156 
L 271.594622 48.015318 
L 271.712499 47.681033 
L 271.830376 48.101771 
L 271.948253 47.784777 
L 272.066131 47.923102 
L 272.301885 47.617634 
L 272.419762 47.387093 
L 272.537639 47.450492 
L 272.89127 47.162315 
L 273.009147 47.450492 
L 273.127025 47.271822 
L 273.244902 47.96921 
L 273.362779 47.67527 
L 273.480656 47.842412 
L 273.598533 47.623398 
L 273.71641 48.078717 
L 273.834287 47.784777 
L 273.952164 48.009555 
L 274.187919 47.542708 
L 274.305796 47.415911 
L 274.423673 47.732905 
L 274.54155 47.548472 
L 274.659427 47.583053 
L 274.777304 47.392856 
L 274.895181 47.698324 
L 275.013059 47.462019 
L 275.130936 47.876993 
L 275.248813 47.686797 
L 275.36669 47.882757 
L 275.484567 47.669506 
L 275.602444 48.320786 
L 275.720321 48.124825 
L 275.838198 48.338076 
L 275.956075 48.124825 
L 276.19183 47.450492 
L 276.309707 47.830885 
L 276.663338 46.914483 
L 277.01697 48.34384 
L 277.134847 48.072954 
L 277.252724 48.24586 
L 277.370601 47.905811 
L 277.488478 52.072847 
L 277.842109 16.494545 
L 277.959987 82.613819 
L 278.313618 52.510875 
L 278.431495 104.970571 
L 278.785126 58.602932 
L 278.903004 143.689999 
L 279.138758 111.679325 
L 279.256635 96.025564 
L 279.374512 173.585455 
L 279.84602 96.163889 
L 280.199652 67.167545 
L 280.553283 54.378261 
L 280.906915 48.83374 
L 281.142669 46.983645 
L 281.260546 47.260295 
L 281.614177 45.836702 
L 281.849932 44.9203 
L 281.967809 45.047098 
L 282.32144 44.147986 
L 282.439317 44.384291 
L 282.557194 44.34971 
L 282.675071 45.110497 
L 282.792948 44.885719 
L 282.910826 45.035571 
L 283.028703 44.856901 
L 283.14658 44.897246 
L 283.264457 44.74163 
L 283.382334 44.960645 
L 283.500211 44.805029 
L 283.618088 44.879955 
L 283.735965 44.776212 
L 283.853843 44.977935 
L 284.207474 44.574488 
L 284.325351 44.885719 
L 284.443228 44.856901 
L 284.561105 45.323747 
L 284.678982 45.11626 
L 284.79686 45.352565 
L 284.914737 45.173895 
L 285.032614 45.571579 
L 285.150491 45.266112 
L 285.268368 45.583106 
L 285.386245 45.4102 
L 285.504122 45.439018 
L 285.621999 45.191186 
L 285.739876 45.462072 
L 285.857754 45.231531 
L 285.975631 45.721431 
L 286.093508 45.49089 
L 286.211385 45.76754 
L 286.329262 45.467836 
L 286.447139 45.848229 
L 286.565016 45.571579 
L 286.682893 45.761776 
L 286.800771 45.617688 
L 286.918648 46.430346 
L 287.036525 46.021135 
L 287.154402 46.130642 
L 287.508033 45.404437 
L 287.62591 45.68685 
L 287.979542 45.006753 
L 288.097419 45.335274 
L 288.215296 45.277639 
L 288.333173 46.470691 
L 288.45105 46.130642 
L 288.568927 46.390001 
L 288.686804 46.130642 
L 288.804682 46.562907 
L 288.922559 46.228622 
L 289.040436 46.378474 
L 289.394067 45.888574 
L 289.511944 46.07877 
L 289.865576 45.715668 
L 289.983453 46.049953 
L 290.10133 46.032662 
L 290.219207 46.626306 
L 290.337084 46.280494 
L 290.454961 46.53409 
L 290.572838 46.320839 
L 290.690716 46.655124 
L 290.808593 46.384238 
L 290.92647 46.528326 
L 291.044347 46.343893 
L 291.280101 45.871283 
L 291.397978 46.228622 
L 291.633733 46.07877 
L 291.75161 45.969263 
L 291.869487 46.228622 
L 291.987364 46.038426 
L 292.105241 46.516799 
L 292.223118 46.234386 
L 292.340995 46.476454 
L 292.458872 46.199805 
L 292.576749 47.029754 
L 292.694627 46.839557 
L 292.812504 47.098916 
L 292.930381 46.822266 
L 293.048258 47.254532 
L 293.166135 46.92601 
L 293.284012 47.127734 
L 293.637644 46.557144 
L 293.755521 46.706996 
L 293.873398 46.580198 
L 293.991275 47.623398 
L 294.109152 47.260295 
L 294.227029 47.473546 
L 294.344906 47.127734 
L 294.462783 47.467782 
L 294.580661 47.260295 
L 294.698538 47.31793 
L 295.052169 47.12197 
L 295.170046 47.098916 
L 295.523677 46.695469 
L 295.641555 47.12197 
L 295.759432 46.995173 
L 295.877309 47.686797 
L 295.995186 47.323694 
L 296.113063 47.519654 
L 296.23094 47.266059 
L 296.348817 47.905811 
L 296.466694 47.513891 
L 296.584572 47.652215 
L 296.820326 47.329458 
L 296.938203 47.058571 
L 297.05608 47.277586 
L 297.173957 47.070098 
L 297.291834 47.214187 
L 297.409711 47.116207 
L 297.527589 47.364039 
L 297.645466 47.162315 
L 297.763343 47.427438 
L 297.88122 47.231477 
L 297.999097 47.508127 
L 298.116974 47.254532 
L 298.234851 47.859703 
L 298.352728 47.640688 
L 298.470605 47.813594 
L 298.70636 47.485073 
L 298.824237 47.254532 
L 298.942114 47.571526 
L 299.295745 46.931774 
L 299.413622 47.173842 
L 299.5315 47.098916 
L 299.649377 48.084481 
L 299.767254 47.88852 
L 299.885131 47.980737 
L 300.003008 47.634925 
L 300.120885 47.96921 
L 300.238762 47.755959 
L 300.356639 48.061426 
L 300.474517 47.825122 
L 300.592394 48.355367 
L 300.710271 48.072954 
L 300.828148 48.268914 
L 300.946025 47.980737 
L 301.063902 48.303495 
L 301.181779 48.049899 
L 301.299656 48.170934 
L 301.417533 47.974973 
L 301.535411 48.839504 
L 301.653288 48.482165 
L 301.771165 48.568618 
L 301.889042 48.291968 
L 302.006919 48.908666 
L 302.124796 48.522509 
L 302.242673 48.63778 
L 302.596305 47.836649 
L 302.714182 48.159407 
L 302.714182 48.159407 
" style="fill:none;stroke:#1f77b4;stroke-linecap:square;stroke-width:0.5;"/>
   </g>
   <g id="patch_3">
    <path d="M 55.296 181.44 
L 55.296 8.64 
" style="fill:none;stroke:#000000;stroke-linecap:square;stroke-linejoin:miter;stroke-width:0.8;"/>
   </g>
   <g id="patch_4">
    <path d="M 314.496 181.44 
L 314.496 8.64 
" style="fill:none;stroke:#000000;stroke-linecap:square;stroke-linejoin:miter;stroke-width:0.8;"/>
   </g>
   <g id="patch_5">
    <path d="M 55.296 181.44 
L 314.496 181.44 
" style="fill:none;stroke:#000000;stroke-linecap:square;stroke-linejoin:miter;stroke-width:0.8;"/>
   </g>
   <g id="patch_6">
    <path d="M 55.296 8.64 
L 314.496 8.64 
" style="fill:none;stroke:#000000;stroke-linecap:square;stroke-linejoin:miter;stroke-width:0.8;"/>
   </g>
  </g>
 </g>
 <defs>
  <clipPath id="p577a27de16">
   <rect height="172.8" width="259.2" x="55.296" y="8.64"/>
  </clipPath>
 </defs>
</svg>
